<svg width="110" height="48" viewBox="0 0 110 48" fill="none" xmlns="http://www.w3.org/2000/svg">
<path d="M26.3034 10.3027H20.1462L11.1904 16.3231V20.3957H18.3028L11.1904 25.1765V29.2491H18.3028L11.1904 34.0301V38.1027H17.3476L26.3034 32.0823V28.0097H19.1909L26.3034 23.2289V19.1562H19.1909L26.3034 14.3754V10.3027Z" fill="white"/>
<path d="M91.099 14.3984C95.227 14.3984 98.395 18.0464 98.395 23.3264C98.395 28.6064 95.259 32.2544 91.099 32.2544C88.539 32.2544 86.107 30.6224 85.051 28.1584V38.1744H81.915V14.7504H85.051V18.9104C85.851 16.6064 87.899 14.3984 91.099 14.3984ZM90.075 29.9504C93.339 29.9504 95.195 27.3584 95.195 23.3264C95.195 19.2944 93.339 16.7024 90.075 16.7024C86.811 16.7024 84.923 19.2944 84.923 23.3264C84.923 27.3584 86.811 29.9504 90.075 29.9504Z" fill="white"/>
<path d="M73.824 14.3984C77.568 14.3984 79.52 17.2464 79.52 21.2144V21.2784V31.9024H76.384V21.7584V21.6944C76.384 18.2384 75.04 16.7024 72.544 16.7024C70.048 16.7024 68.704 18.2384 68.704 21.7584V31.9024H65.568V21.7584V21.6944C65.568 18.2384 64.224 16.7024 61.728 16.7024C59.232 16.7024 57.888 18.2384 57.888 21.7584V31.9024H54.752V14.7504H57.888V18.2384C58.656 16.1904 60.192 14.3984 63.008 14.3984C65.952 14.3984 67.776 16.4784 68.384 18.6864C69.088 16.6064 70.752 14.3984 73.824 14.3984Z" fill="white"/>
<path d="M45.2481 14.3984C50.4641 14.3984 52.3521 17.6624 52.3521 20.8624V20.9264V31.9024H49.2161V28.3824C48.0321 30.7824 46.6241 32.2544 43.2961 32.2544C40.0961 32.2544 37.5361 29.9184 37.5361 26.7504C37.5361 22.7504 41.5361 21.9824 44.6081 21.6624L49.2161 21.1824V20.8944V20.8304C49.2161 18.5904 47.9681 16.7024 45.2481 16.7024C42.8481 16.7024 41.5041 18.1744 41.2801 19.8064H38.0801C38.4641 16.5744 41.2161 14.3984 45.2481 14.3984ZM44.4481 30.1744C47.6161 30.1744 49.2161 27.6784 49.2161 24.6064V23.3264L45.7921 23.6784C43.4241 23.9344 40.7361 24.2544 40.7361 26.7504C40.7361 28.9584 42.4641 30.1744 44.4481 30.1744Z" fill="white"/>
</svg>
